# This file uses centimeters as units for non-parametric coordinates.

mtllib KnifeLow.mtl
g default
v -1.996597 30.955370 1.052954
v 1.996597 30.955370 1.052954
v -1.996598 69.197647 1.052955
v 1.996598 62.491772 1.052954
v -1.996598 69.197647 -1.052955
v 1.996598 62.491772 -1.052954
v -1.996597 30.955370 -1.052954
v 1.996597 30.955370 -1.052954
v -1.415568 0.000000 0.505903
v -1.415569 2.963939 1.011706
v -1.996598 2.963939 0.505904
v 1.996598 2.963939 0.505904
v 1.415569 2.963939 1.011706
v 1.415569 0.000000 0.505904
v -1.996597 30.955370 0.505904
v -1.415569 30.955370 1.011706
v 1.415569 30.955370 1.011706
v 1.996598 30.955370 0.505904
v -1.996598 30.955370 -0.505904
v -1.415569 30.955370 -1.011706
v 1.415569 30.955370 -1.011706
v 1.996598 30.955370 -0.505904
v -1.996598 2.963939 -0.505904
v -1.415569 2.963939 -1.011706
v -1.415569 0.000000 -0.505904
v 1.415569 0.000000 -0.505904
v 1.415569 2.963939 -1.011706
v 1.996598 2.963939 -0.505904
v 3.119788 30.955370 0.042266
v 3.119788 30.955370 -0.042266
v 3.119790 64.279076 0.042266
v 3.119790 64.279076 -0.042266
v -1.996598 70.984955 0.042266
v -1.996598 70.984955 -0.042266
v -1.996597 30.955370 0.042266
v -1.996597 30.955370 -0.042266
vt 0.365785 0.003990
vt 0.365785 0.083299
vt 0.338711 0.083299
vt 0.338711 0.003990
vt 0.379320 0.083299
vt 0.365785 0.832303
vt 0.338711 0.832303
vt 0.325177 0.083299
vt 0.379320 0.832303
vt 0.325177 0.832303
vt 0.397748 0.083299
vt 0.397748 0.003990
vt 0.424822 0.003990
vt 0.424822 0.083299
vt 0.384213 0.083299
vt 0.438356 0.083299
vt 0.424822 0.832303
vt 0.397748 0.832303
vt 0.384213 0.832303
vt 0.438356 0.832303
vt 0.656747 0.029930
vt 0.607833 0.029930
vt 0.656747 0.122679
vt 0.607833 0.122679
vt 0.663291 0.069579
vt 0.663291 0.001992
vt 0.687445 0.001992
vt 0.687445 0.069579
vt 0.001372 0.002830
vt 0.100469 0.002830
vt 0.100469 0.785453
vt 0.453983 0.074616
vt 0.453983 0.003808
vt 0.521618 0.003808
vt 0.521618 0.074616
vt 0.521618 0.743322
vt 0.453983 0.743322
vt 0.527330 0.741510
vt 0.527330 0.670702
vt 0.594965 0.670702
vt 0.594965 0.741510
vt 0.527330 0.001996
vt 0.594965 0.001996
vt 0.620063 0.003841
vt 0.644517 0.003841
vt 0.445038 0.003594
vt 0.603268 0.160626
vt 0.600677 0.160626
vt 0.295865 0.958976
vt 0.293847 0.958976
vt 0.293847 0.003343
vt 0.001372 0.951869
vt 0.600677 0.003805
vt 0.262516 0.953653
vt 0.447056 0.003594
vt 0.447056 0.799120
vt 0.295865 0.003343
vt 0.319993 0.003343
vt 0.319993 0.916307
vt 0.163419 0.787237
vt 0.163419 0.004614
vt 0.445038 0.799120
vt 0.269718 0.003343
vt 0.269718 0.916307
vt 0.603268 0.003805
vt 0.262516 0.004614
vt 0.128343 0.829808
vt 0.001372 0.996224
vt 0.128343 0.002830
vt 0.135545 0.831592
vt 0.135545 0.004614
vt 0.262516 0.998008
vn 0.000000 -0.000000 1.000000
vn 0.183340 -0.000000 0.983050
vn 0.185266 0.011155 0.982625
vn 0.155243 0.105444 0.982233
vn 0.155243 0.105445 -0.982233
vn 0.185266 0.011155 -0.982625
vn 0.183340 -0.000000 -0.983050
vn 0.000000 -0.000000 -1.000000
vn 0.000000 -1.000000 0.000000
vn 0.000000 -1.000000 0.000000
vn 0.000000 -1.000000 0.000000
vn 0.000000 -1.000000 0.000000
vn -0.981322 -0.192371 0.000000
vn -0.981322 -0.192371 0.000000
vn -0.981322 -0.192371 0.000000
vn -0.981322 -0.192371 0.000000
vn -0.000000 -0.168220 0.985749
vn -0.000000 -0.168220 0.985749
vn -0.000000 -0.168220 0.985749
vn -0.000000 -0.168220 0.985749
vn -0.656593 -0.000000 0.754245
vn -0.656593 -0.000000 0.754245
vn -0.656593 -0.000000 0.754245
vn -0.656593 -0.000000 0.754245
vn 0.981322 -0.192371 0.000000
vn 0.981322 -0.192371 0.000000
vn 0.981322 -0.192371 0.000000
vn 0.981322 -0.192371 0.000000
vn 0.656593 0.000000 0.754246
vn 0.656593 0.000000 0.754246
vn 0.656593 0.000000 0.754246
vn 0.656593 0.000000 0.754246
vn -0.656593 0.000000 -0.754246
vn -0.656593 0.000000 -0.754246
vn -0.656593 0.000000 -0.754246
vn -0.656593 0.000000 -0.754246
vn 0.656593 0.000000 -0.754246
vn 0.656593 0.000000 -0.754246
vn 0.656593 0.000000 -0.754246
vn 0.656593 0.000000 -0.754246
vn 0.000000 -0.168220 -0.985749
vn 0.000000 -0.168220 -0.985749
vn 0.000000 -0.168220 -0.985749
vn 0.000000 -0.168220 -0.985749
vn 0.000000 -0.000000 1.000000
vn 0.000000 -0.000000 1.000000
vn 0.000000 -0.000000 1.000000
vn 0.000000 -0.000000 1.000000
vn 0.000000 0.000000 -1.000000
vn 0.000000 0.000000 -1.000000
vn 0.000000 0.000000 -1.000000
vn 0.000000 0.000000 -1.000000
vn 0.000000 -1.000000 0.000000
vn 0.000000 -1.000000 0.000000
vn 0.000000 -1.000000 0.000000
vn 0.000000 -1.000000 0.000000
vn 1.000000 0.000000 0.000000
vn 1.000000 0.000000 0.000000
vn 1.000000 0.000000 0.000000
vn 1.000000 0.000000 0.000000
vn -1.000000 0.000000 0.000000
vn -1.000000 0.000000 0.000000
vn -1.000000 0.000000 0.000000
vn -1.000000 0.000000 0.000000
vn -0.651220 -0.127661 0.748074
vn -0.651220 -0.127661 0.748074
vn -0.651220 -0.127661 0.748074
vn 0.651220 -0.127660 0.748074
vn 0.651220 -0.127660 0.748074
vn 0.651220 -0.127660 0.748074
vn -0.651220 -0.127660 -0.748074
vn -0.651220 -0.127660 -0.748074
vn -0.651220 -0.127660 -0.748074
vn 0.651220 -0.127660 -0.748074
vn 0.651220 -0.127660 -0.748074
vn 0.651220 -0.127660 -0.748074
vn 0.000000 -1.000000 0.000000
vn 0.000000 -1.000000 0.000000
vn 0.000000 -1.000000 0.000000
vn 0.000000 -1.000000 0.000000
vn 1.000000 -0.000000 0.000000
vn 1.000000 -0.000000 0.000000
vn 1.000000 -0.000000 0.000000
vn 1.000000 -0.000000 0.000000
vn 0.795023 0.606579 0.000000
vn 0.795023 0.606579 0.000000
vn 0.795023 0.606579 0.000000
vn 0.795023 0.606579 0.000000
vn -1.000000 -0.000000 0.000000
vn -1.000000 -0.000000 -0.000000
vn -1.000000 -0.000000 -0.000000
vn -1.000000 -0.000000 0.000000
vn 0.591199 0.143744 0.793613
vn 0.468926 0.318505 0.823810
vn 0.668897 -0.000000 0.743355
vn -1.000000 -0.000000 0.000000
vn -1.000000 -0.000000 0.000000
vn 0.591200 0.143744 -0.793612
vn 0.668897 -0.000000 -0.743355
vn 0.468926 0.318506 -0.823809
vn -1.000000 -0.000000 -0.000000
vn -1.000000 -0.000000 -0.000000
s 1
g Knife
usemtl initialShadingGroup
f 1/29/1 2/30/2 4/31/3 3/52/4
s 2
f 5/54/5 6/60/6 8/61/7 7/66/8
s off
f 2/21/9 1/23/10 7/24/11 8/22/12
f 9/1/13 11/2/14 23/3/15 25/4/16
f 10/32/17 9/33/18 14/34/19 13/35/20
f 11/2/21 10/5/22 16/9/23 15/6/24
f 12/11/25 14/12/26 26/13/27 28/14/28
f 13/15/29 12/11/30 18/18/31 17/19/32
f 19/7/33 20/10/34 24/8/35 23/3/36
f 21/20/37 22/17/38 28/14/39 27/16/40
f 25/38/41 24/39/42 27/40/43 26/41/44
f 10/32/45 13/35/46 17/36/47 16/37/48
f 20/42/49 21/43/50 27/40/51 24/39/52
f 25/25/53 26/26/54 14/27/55 9/28/56
f 12/11/57 28/14/58 22/17/59 18/18/60
f 23/3/61 11/2/62 15/6/63 19/7/64
f 9/1/65 10/5/66 11/2/67
f 12/11/68 13/15/69 14/12/70
f 23/3/71 24/8/72 25/4/73
f 26/13/74 27/16/75 28/14/76
f 30/44/77 29/45/78 2/21/79 8/22/80
f 29/46/81 30/55/82 32/56/83 31/62/84
f 31/47/85 32/48/86 34/53/87 33/65/88
s 3
f 33/49/89 34/50/90 36/51/91 35/57/92
s 1
f 3/52/4 4/31/3 31/67/93 33/68/94
f 2/30/2 29/69/95 31/67/93 4/31/3
s 3
f 33/49/89 35/57/92 1/58/96 3/59/97
s 2
f 32/70/98 30/71/99 8/61/7 6/60/6
f 34/72/100 32/70/98 6/60/6 5/54/5
s 3
f 7/63/101 36/51/91 34/50/90 5/64/102
